<?xml version="1.0" encoding="utf-8"?>
<!-- Generator: Adobe Illustrator 26.5.0, SVG Export Plug-In . SVG Version: 6.00 Build 0)  -->
<svg version="1.1" id="Capa_1" xmlns="http://www.w3.org/2000/svg" xmlns:xlink="http://www.w3.org/1999/xlink" x="0px" y="0px"
	 viewBox="0 0 250 118" style="enable-background:new 0 0 250 118;" xml:space="preserve">
<style type="text/css">
	.st0{fill:#20122B;}
	.st1{fill:none;stroke:url(#SVGID_1_);stroke-width:22;stroke-linecap:round;stroke-linejoin:round;stroke-miterlimit:10;}
	
		.st2{fill:none;stroke:url(#SVGID_00000062161395443310981010000002087846424629796263_);stroke-width:22;stroke-linecap:round;stroke-linejoin:round;stroke-miterlimit:10;}
</style>
<symbol  id="Nitro_1" viewBox="-173 -79 346 158">
	<path class="st0" d="M148.78-79h-297.56C-162.16-79-173-68.16-173-54.78V54.78C-173,68.16-162.16,79-148.78,79h297.56
		C162.16,79,173,68.16,173,54.78V-54.78C173-68.16,162.16-79,148.78-79z"/>
	<linearGradient id="SVGID_1_" gradientUnits="userSpaceOnUse" x1="-159.3032" y1="-0.1074" x2="-17.0694" y2="-0.1074">
		<stop  offset="0" style="stop-color:#E4221C"/>
		<stop  offset="0.0662" style="stop-color:#DF241F"/>
		<stop  offset="0.1485" style="stop-color:#CF2A29"/>
		<stop  offset="0.2395" style="stop-color:#B63339"/>
		<stop  offset="0.3366" style="stop-color:#934150"/>
		<stop  offset="0.4387" style="stop-color:#65526D"/>
		<stop  offset="0.5433" style="stop-color:#2E6790"/>
		<stop  offset="0.6026" style="stop-color:#0C74A6"/>
		<stop  offset="0.7069" style="stop-color:#1A7FAE"/>
		<stop  offset="0.9022" style="stop-color:#3E9BC3"/>
		<stop  offset="1" style="stop-color:#52ABCF"/>
	</linearGradient>
	<polyline class="st1" points="-148.3,-57.39 -93.72,37.73 -71.95,-24.67 -28.07,57.18 	"/>
	
		<text transform="matrix(1 0 0 -1 -31.3867 -36.2734)" style="fill:#FFFFFF; font-family:'RopaSoftPro-BoldItalic'; font-size:94.2087px;">ITRO</text>
	
		<text transform="matrix(1 0 0 -1 -81.3867 -65.9746)" style="fill:#FFFFFF; font-family:'RopaSoftPro-Medium'; font-size:20.7877px;">POTENCIAMOS TUS VENTAS</text>
</symbol>
<symbol  id="Nitro_2" viewBox="-202.51 -83.47 405.01 166.94">
	
		<use xlink:href="#Nuevo_símbolo_2"  width="185.59" height="185.59" x="-92.8" y="-92.8" transform="matrix(0.8995 0 0 0.8995 -119.0342 0)" style="overflow:visible;"/>
	<g>
		
			<text transform="matrix(1 0 0 -1 -21.9893 -22.9634)" style="fill:#241530; font-family:'RopaSoftPro-BoldItalic'; font-size:94.2087px;">NITRO</text>
		
			<text transform="matrix(1 0 0 -1 -21.9893 -45.665)" style="fill:#241530; font-family:'RopaSoftPro-Medium'; font-size:20.7877px;">POTENCIAMOS TUS VENTAS</text>
	</g>
</symbol>
<symbol  id="Nuevo_símbolo_2" viewBox="-92.8 -92.8 185.59 185.59">
	<path class="st0" d="M68.58-92.8H-68.58c-13.38,0-24.22,10.84-24.22,24.22V68.58c0,13.38,10.84,24.22,24.22,24.22H68.58
		c13.38,0,24.22-10.84,24.22-24.22V-68.58C92.8-81.95,81.95-92.8,68.58-92.8z"/>
	
		<linearGradient id="SVGID_00000000217851093388916110000011819608257713424270_" gradientUnits="userSpaceOnUse" x1="-74.4418" y1="-1.818989e-12" x2="74.4418" y2="-1.818989e-12">
		<stop  offset="0" style="stop-color:#E4221C"/>
		<stop  offset="0.0662" style="stop-color:#DF241F"/>
		<stop  offset="0.1485" style="stop-color:#CF2A29"/>
		<stop  offset="0.2395" style="stop-color:#B63339"/>
		<stop  offset="0.3366" style="stop-color:#934150"/>
		<stop  offset="0.4387" style="stop-color:#65526D"/>
		<stop  offset="0.5433" style="stop-color:#2E6790"/>
		<stop  offset="0.6026" style="stop-color:#0C74A6"/>
		<stop  offset="0.7069" style="stop-color:#1A7FAE"/>
		<stop  offset="0.9022" style="stop-color:#3E9BC3"/>
		<stop  offset="1" style="stop-color:#52ABCF"/>
	</linearGradient>
	
		<polyline style="fill:none;stroke:url(#SVGID_00000000217851093388916110000011819608257713424270_);stroke-width:22;stroke-linecap:round;stroke-linejoin:round;stroke-miterlimit:10;" points="
		-63.44,-60.45 -5.84,39.93 17.14,-25.92 63.44,60.45 	"/>
</symbol>
<use xlink:href="#Nitro_1"  width="346" height="158" x="-173" y="-79" transform="matrix(0.6908 0 0 -0.6908 125.4925 59.5728)" style="overflow:visible;"/>
<use xlink:href="#Nitro_2"  width="405.01" height="166.94" x="-202.51" y="-83.47" transform="matrix(0.5802 0 0 -0.5802 394.506 59.2841)" style="overflow:visible;"/>
</svg>
